<svg id="Calque_1" data-name="Calque 1" xmlns="http://www.w3.org/2000/svg" viewBox="0 0 606.3 582.5">
    <defs>
        <style>.cls-1{fill:#3d6666;stroke:#3d6666;stroke-miterlimit:10;stroke-width:2px;}</style>
    </defs>
    <title>Plan de travail 1</title>
    <g id="Calque_2" data-name="Calque 2">
        <g id="Calque_1-2" data-name="Calque 1-2">
            <g id="Layer_1" data-name="Layer 1">
                <path class="cls-1"
                    d="M269.3,180.51c-2-4-4.18-8-4.38-12.84,1.89,0,2.39,1.33,2.85,2.56,1.22,3.3,2.36,6.62,3.57,9.92a4.19,4.19,0,0,0,1,2,2.08,2.08,0,0,0,.62-.22c9.21-7.72,18.12-15.74,25.62-25.19,2.5-3.15,4.76-6.42,5.68-10.43a10,10,0,0,0,.27-1.41,2.19,2.19,0,0,0-1.67-2.61l-.18,0a10,10,0,0,0-5.45.25c-7.23,1.74-14.45,3.6-21.26,6.59-13.3,5.83-27.16,9.87-41.19,13.47a64.79,64.79,0,0,1-14.89,2.32,22.4,22.4,0,0,1-10-1.88,7.71,7.71,0,0,1-4.75-7.41,20.4,20.4,0,0,1,2.14-9.26,43.84,43.84,0,0,1,5.75-8.82,74.52,74.52,0,0,1,10.39-10.62c12.36-10.15,24.54-20.55,37.46-30,11-8,21.94-16.06,33.38-23.42a46.77,46.77,0,0,0,6-4.78A150.34,150.34,0,0,0,312,56.42a9.59,9.59,0,0,0,2.33-4.66c.41-2.18-.51-3.54-2.69-4-3.11-.72-6.22-.17-9.31.19a28.54,28.54,0,0,0-4.94,1c-6.6,2-13.43,2.91-20.1,4.54a38.21,38.21,0,0,1-13.36.45c-3.52-.39-5.06-2.23-5.14-5.75a12.55,12.55,0,0,1,2.75-8,44.61,44.61,0,0,1,3.91-4.22c6.71-6.88,12.71-14.38,19.13-21.52a14.56,14.56,0,0,0,3.26-6.6c.6-2.6-.16-3.75-2.74-4.28a18.44,18.44,0,0,0-6.2-.1A15.72,15.72,0,0,1,272,3.1a2.19,2.19,0,0,1-1.22-.66.47.47,0,0,1,.31-.57c4.5-.93,9-1.32,13.53-.12A8.69,8.69,0,0,1,289,4.2a3.27,3.27,0,0,1,.68,4c-1.82,3.55-3.54,7.15-6.26,10.18-3.74,4.16-7.3,8.49-11,12.67-2,2.21-4.07,4.3-6.17,6.38A22.89,22.89,0,0,0,260.71,46c-1.23,3.43-.26,5.21,3.35,5.81a33.44,33.44,0,0,0,10.52,0c9-1.39,17.9-3.37,26.78-5.39a29.94,29.94,0,0,1,10.24-.58c3.43.4,4.63,1.88,4.3,5.31A14.65,14.65,0,0,1,312.67,59a73.41,73.41,0,0,1-18.08,16.31c-8.39,5.29-16.27,11.33-24.41,17-12.15,8.46-23.84,17.52-35.32,26.86a65.15,65.15,0,0,0-5.31,5.2q-7.83,8-15.68,15.88c-3.27,3.3-5.8,7-6.64,11.7-.06.31-.13.63-.17.94-.76,6,1.55,8.84,7.56,9.52,6.46.74,12.76-.27,19-1.64a203.61,203.61,0,0,0,38.59-12.88,188,188,0,0,1,19.63-7.71,42.55,42.55,0,0,1,6.77-1.55,12.93,12.93,0,0,1,6.61.64c2.09.8,2.73,1.9,2.23,4.11a41.5,41.5,0,0,1-8.3,16.59c-3,3.78-6.74,6.82-10.2,10.15-4.33,4.16-9,8-13.48,11.92-2.5,2.17-2.53,2.4-1.34,5.55q5,13.34,10.07,26.69c.17.44.36.87.64,1.53a2.83,2.83,0,0,0,.76-1.49c.26-1,.48-2,.83-3,.78-2.18,1.76-2.63,3.85-1.75a27.26,27.26,0,0,1,5.45,3c6.71,4.77,13.32,9.69,20.24,14.17,3.65,2.37,7.33,4.49,11.8,5,2,.22,3.65,1.6,5,3.07,2.3,2.44,4.64,4.87,6.78,7.45a120.09,120.09,0,0,0,19.21,18c.36.28.67.73,1.34.51.6-1.2,0-2.28-.57-3.31-1.28-2.48-2.63-4.94-4-7.38A143.69,143.69,0,0,1,349,237a35.83,35.83,0,0,0-4.43-7.11,66.92,66.92,0,0,1-9.28-16.72,40.05,40.05,0,0,1-1.6-22.65,14.1,14.1,0,0,1,3.09-6.41c2.6-3,5.9-3,8.33.19s4.25,6.58,6.37,9.87c.4.63.58,1.48,1.53,1.81.81-1.55.79-3.26,1.19-4.85.44-1.78.73-3.6,1.11-5.4,1.53-7.32,5.71-12.92,11.48-17.46a10.54,10.54,0,0,1,4.37-1.89,4.94,4.94,0,0,1,6,3.55l0,.19a19.43,19.43,0,0,1,.52,7.85,123.76,123.76,0,0,0-.8,24.41c.32,4.06.93,8.1,1.42,12.14.87,7.14,1.61,14.3,3.33,21.31.15.62.29,1.25.49,1.85a28.26,28.26,0,0,1,1.46,8,24.12,24.12,0,0,0,2.06,7.85,46.16,46.16,0,0,1,3.16,20.93c-.69,8-1,16.11-2.15,24.12a100,100,0,0,0-1.16,15.06c.12,8.59-1.68,16.86-4.22,25-3.41,10.82-7,21.58-11,32.2a166.77,166.77,0,0,1-14.4,29.47C346.82,415,341.67,431,339.6,448a49.12,49.12,0,0,0,.53,14.57c.44,2.45,1.13,2.91,3.63,2.39a196.6,196.6,0,0,0,78.8-35.29c37.91-28.33,63.18-65.38,75.47-111.13a193.52,193.52,0,0,0,6.14-63.93c-3.37-49.07-22.1-91.49-56.06-126.94-28.85-30.11-63.93-49.35-104.82-57.86a187.9,187.9,0,0,0-31.62-3.87c-.8,0-1.59-.11-2.39-.19-.13,0-.25-.17-.37-.26,1.09-2.43,3.15-2.4,5.38-2.26C350.57,65.42,384.2,76,414.5,96.1c44.5,29.57,73.72,70.23,86.92,122.13a197,197,0,0,1,5.67,59.7c-2.67,48.43-20.13,90.8-52.65,126.75-29.66,32.79-66.33,53.72-109.6,63-.62.13-1.26.24-1.88.36-2.22.4-3.58-.38-4.07-2.59a64.5,64.5,0,0,1-1.4-11.17c-.65-14.9,3.27-28.8,9.3-42.22a59.22,59.22,0,0,1,3.52-6.81c12.32-19.94,21-41.44,27.46-63.9,1.19-4.15,2.36-8.31,3.76-12.38,2.2-6.4,2.19-12.84.9-19.4-1-5-1.77-10.07-2.67-15.11a29.74,29.74,0,0,0-4.54-11.26c-4.62-7-10.33-13-16-19.12-4.39-4.74-9.65-8.38-14.67-12.33a2.7,2.7,0,0,0-3.5-.28c-2,1.31-4,.9-5.85-.32-4.34-2.87-8-6.4-10.13-11.25-.26-.58-.56-1.15-.87-1.71-.07-.12-.25-.17-.46-.31-.7.67-.58,1.58-.63,2.4-.52,7.65,1.84,14.51,5.88,20.86a40.15,40.15,0,0,0,8.57,9.66c8.28,6.75,13.43,15.76,18.37,24.93,2.12,3.92,2.16,8.13,1,12.37a41.67,41.67,0,0,1-11,18.55c-2.52,2.57-5.23,5-7.84,7.43a73.52,73.52,0,0,0-7.42,8.16,42,42,0,0,0-7.49,14.63c-.92,3.31-1.9,6.6-2.84,9.9-.15.51-.12,1.23-1,1.08-.6-.1-.57-.69-.64-1.15a13.21,13.21,0,0,1,.29-4.52c1.57-8.9,5.69-16.57,11.41-23.44a146.11,146.11,0,0,1,13-13.42,39.48,39.48,0,0,0,11.44-19,11.71,11.71,0,0,0-.65-8.4A79,79,0,0,0,335,271.75,42.75,42.75,0,0,1,320.89,247a32.06,32.06,0,0,1,0-10.75,4.66,4.66,0,0,0-2.34-5.26c-3.29-2-6.52-4.06-9.8-6-1.6-1-2.25-.93-3.61.39a4.32,4.32,0,0,1-5.07.89,27.44,27.44,0,0,1-9-6.22l-2.77-2.79c-.72.47-.5,1-.44,1.38a24.6,24.6,0,0,0,6.61,13.83,77.18,77.18,0,0,0,14.24,11.69c1.87,1.24,3.76,2.43,5.66,3.62a13,13,0,0,1,4.56,4.82c3.08,5.6,6.15,11.21,8.89,17a21.22,21.22,0,0,1,2.07,8.07c0,.8.17,1.59.19,2.39a4.67,4.67,0,0,0,3.22,4.57,18.16,18.16,0,0,1,5.69,3.94c3.73,3.57,4.33,8,1.66,12.39a39,39,0,0,1-8.58,9.63,82.11,82.11,0,0,1-9.42,6.61c-7.89,4.91-15.5,10.2-22.19,16.7a47.56,47.56,0,0,0-6.9,8.28c-2,3-1.73,5.16.79,7.73a34,34,0,0,0,4.41,3.7c5.39,3.86,6.86,8.39,4.78,14.65-.66,2-1.34,3.93-2,5.9a7.84,7.84,0,0,1-1.5,2.71c-.25.28-.48.7-1,.45a1.11,1.11,0,0,1-.49-1,4.32,4.32,0,0,1,.51-1.83,74.52,74.52,0,0,0,2.61-7.72c1.29-5.24-.2-9-4.71-12-.74-.48-1.51-.91-2.23-1.41-4.65-3.22-5.68-8-2.57-12.74a57,57,0,0,1,10.7-11.93,131.43,131.43,0,0,1,11.48-8.27c4.08-2.81,8.2-5.58,12.23-8.47a72.45,72.45,0,0,0,10.82-9.82c4.48-4.82,3.25-10.89-2.2-14.18-1.16-.7-2.37-1.33-3.57-2-.77-.4-1.22-.13-1.24.75,0,1.28-.1,2.56-.08,3.84a17,17,0,0,1-3,10,31.21,31.21,0,0,1-13.46,10.85,10,10,0,0,1-4.47.73c-3.12-.1-4.5-1.48-4.56-4.64a52,52,0,0,0-.44-7.89q-1.24-7.2-2.47-14.41c-.16-.94-.75-1.08-1.53-1.13a56.3,56.3,0,0,0-8.61.49c-3.5.34-7,.93-10.47,1.27-1.15.11-1.48.65-1.62,1.62-.5,3.32-1,6.64-1.56,10-1.34,7.63-2.62,15.28-4.14,22.88-1,4.86-.69,9.71-.57,14.58.18,7.92.38,15.84,2.28,23.59l4,16.28c1.68,6.66,3.59,13.26,4.61,20.08a53.51,53.51,0,0,1-.1,17.9c-1,5.27-1.38,10.62-2.17,15.92-1.24,8.23-3.34,16.27-5.24,24.36q-.72,3-1.41,6.07c-1.25,5.4-5.2,8.61-10.76,8.84a29.57,29.57,0,0,1-8.27-1.23c-51.51-12.45-92.3-40.63-122.53-84a197.36,197.36,0,0,1-32.39-79.28,207.86,207.86,0,0,1-2.63-49.7c4.85-75.64,50.81-138.2,112.36-169.12A201.08,201.08,0,0,1,274,65a222,222,0,0,1,28.21-2,1.2,1.2,0,0,1,1,.36,4.31,4.31,0,0,1-3.82,2.44,214.24,214.24,0,0,0-26,2.12,195.89,195.89,0,0,0-58.51,18q-61.3,30.29-92.38,91.24a201,201,0,0,0-21,102.63c3.24,47.6,20.92,89.15,53.21,124.26,27.12,29.49,60.3,49.09,99.16,59,3,.77,6.06,1.46,9.11,2.09,5.12,1,9.06-1.49,10.17-6.64,2.7-12.58,5.79-25.07,8-37.76,1.42-8.29,2.28-16.64,1.23-25.07a52.4,52.4,0,0,0-1.72-8.69c-.92-3.06-1.75-6.15-2.39-9.28-1-5.18-3.18-10-4.3-15.22-2.06-9.55-3.8-19.14-3.46-29a161.86,161.86,0,0,1,3.37-26.85c1.26-6.18,2.34-12.4,3.48-18.61.25-1.38.12-1.55-1.31-1.42-6.13.55-12.26,1.11-18.39,1.74-8.35.86-16.69,1.78-25,2.7-2.86.32-5.74.56-8.56,1.13a45.15,45.15,0,0,1-20-.85,72.77,72.77,0,0,1-7.36-2.14,28.49,28.49,0,0,1-9.36-5.7,8.77,8.77,0,0,1-3-6.08,27.84,27.84,0,0,1,4.14-17.64A133.29,133.29,0,0,1,212,232q20.46-18.53,42.52-35.15c4.65-3.53,9.09-7.33,13.69-10.92,1.36-1.06,2.09-2.1,1.31-3.84a5.71,5.71,0,0,1-.23-1.62c1.17.58.61,2.29,1.84,2.86a8.36,8.36,0,0,0-2-5.29C268.67,178.89,269.81,179.65,269.3,180.51ZM207.53,289.8l-.06-.07c1,.61,2.18.34,3.26.32a365.28,365.28,0,0,0,46.61-3.37q8.78-1.28,17.55-2.6c2-.31,2-.35,2.25-2.26.63-4.47.32-8.94.12-13.41a231.78,231.78,0,0,1,.8-36.41c.46-4.08,1.37-8,3.83-11.47,1.2-1.68,1-3.43.34-5.25Q277,201.75,271.86,188.2a3.1,3.1,0,0,0-1-1.7,18.19,18.19,0,0,0-3.93,2.62c-4.61,3.71-9.15,7.51-13.86,11.08-7,5.27-13.86,10.58-20.5,16.23-9.62,8.19-19.25,16.39-27.92,25.61a105.07,105.07,0,0,0-14.16,18.1A41.49,41.49,0,0,0,186,270.2c-1.7,6.14-.1,10.52,5.12,14.16a29.73,29.73,0,0,0,8.58,4.19A20,20,0,0,0,207.53,289.8ZM338.66,186.32a21.51,21.51,0,0,0-3.77,15.24,52.55,52.55,0,0,0,10.4,25.19,53.66,53.66,0,0,1,6.38,10.4c2.26,5.13,4.87,10.06,7.47,15a102.7,102.7,0,0,1,5.77,12.63,22.39,22.39,0,0,0,5.1,8q.84.86,1.65,1.74c5.33,5.82,9.49,12.22,10.59,20.28A20.8,20.8,0,0,0,384,301a6.29,6.29,0,0,0,.53-3c.14-2.15.25-4.31.36-6.46.4-7.66,1-15.31,1.16-23a37.93,37.93,0,0,0-5.83-21.18c-2.2-3.53-4.43-7-6.66-10.54-6.79-10.65-13.17-21.54-19.35-32.56-.85-1.51-1.79-2.23-3.62-1.92-2.88.49-4.92-1-6.37-3.33C341.75,195.1,339.41,191.09,338.66,186.32Zm-54.6,36a3.93,3.93,0,0,0-1.48,2.16c-1.08,4.74-2.65,9.37-2.83,14.29-.5,14.13-.2,28.27-.16,42.4,0,2.35.6,2.84,2.91,2.6,2.62-.27,5.23-.6,7.85-.93,2.45-.31,4.91-.64,7.36-1,3-.41,3.55-1.07,3.33-4a4.39,4.39,0,0,0-.08-1c-.49-3.88-1-7.76-1.49-11.64-.69-5-1.38-10-3.25-14.69-3.37-8.53-6.81-17-10.24-25.55a4.75,4.75,0,0,0-1.92-2.66Zm96,19.64a1.74,1.74,0,0,0,.35-1.69c-.33-1.64-.64-3.29-1-4.93-1-4.75-2.32-9.44-2.7-14.34-.67-8.68-1.57-17.35-2.38-26a2.59,2.59,0,0,0-2.06-2.61c-1.92-.43-2.72-1.82-3.11-3.55a27.47,27.47,0,0,1-.21-11.42c.52-2.64,1-5.3,1.5-8-1.83.37-1.86.33-2.53.9-5.1,4.37-9,9.52-10.34,16.27a128.65,128.65,0,0,0-1.45,13.58,8.87,8.87,0,0,0,1.42,5.25c7,12,13.71,24.2,21.58,35.68a1.88,1.88,0,0,0,.93.84Zm-81-1.69a54.63,54.63,0,0,0,1,7.84c.9,5.84,2,11.64,4.34,17.12,1.87,4.32,3.64,8.68,5.46,13,1,2.33,1.78,2.89,4.4,2.82a37.8,37.8,0,0,1,7.88.45c1.41.26,2.79.67,4.19,1,1,.21,1.55-.1,1.5-1.22-.16-3.35-.32-6.65-1.84-9.79-3-6.12-6.28-12-9.5-18a8.94,8.94,0,0,0-2.9-3.12c-3.41-2.37-6.8-4.76-10.21-7.13-1.28-.93-2.59-1.81-4.32-3Zm15.13,53.52a10.71,10.71,0,0,1-2.7-4.49,37.84,37.84,0,0,0-1.46-4,3.48,3.48,0,0,0-3.81-1.82c-1.06.3-1.39,1-1.34,3a8.46,8.46,0,0,0,.08,1.44l1.42,13.6c.17,1.67.23,3.35.45,5,.29,2.19,1.2,2.94,3.38,2.82a9.8,9.8,0,0,0,4.82-1.26,41,41,0,0,0,8.64-6.81,16.83,16.83,0,0,0,4.49-13.69c-.26-2.54-.86-3.14-3.43-3.47-2.14-.28-4.29-.49-6.45-.61-2-.11-4-.6-6,.11.15,3.39,3.46,6.28,1.91,10.16ZM308,280.28l-1.76-4.5c-.59-1.5-1.08-2.83-1.73-4.19s-.72-3-2.54-4.3c.52,4.33,1,8.18,1.46,12a1.78,1.78,0,0,0,1.94,1.61h.06A3.8,3.8,0,0,0,308,280.28Zm-15.07-44.54a46.88,46.88,0,0,0,3.57,8.42c-.25-3.22-.2-6.56-3.58-8.42Zm-20.39-49c.26-.54.34-1-.34-1.29-.07,0-.31.11-.32.2a1.06,1.06,0,0,0,.65,1.13Z" />
                <path class="cls-1"
                    d="M503.45,108.87a114.24,114.24,0,0,0-22.69-15.95,19.34,19.34,0,0,0-8.27-2c-6.39-.3-12.79.19-19.17-.44a30.72,30.72,0,0,1-12.55-3.67,12.79,12.79,0,0,1-3.38-2.65c-2.07-2.39-1.89-4.85.55-6.9a12.08,12.08,0,0,1,6.56-2.68,15.69,15.69,0,0,1,6.62.7,82.71,82.71,0,0,1,25.36,13.24,27.74,27.74,0,0,0,4.43,2.83A102.91,102.91,0,0,1,494.21,99c.22.1.39.51.69.19s0-.53-.14-.77c-2.24-4.51-4.49-9-6.7-13.53-1.83-3.74-3.49-7.55-3.91-11.77a10.66,10.66,0,0,1,1.68-7.32,3.21,3.21,0,0,1,2.58-1.5,8.2,8.2,0,0,1,7.67,3.56A20.83,20.83,0,0,1,499.3,76a88.5,88.5,0,0,1,1.43,15.5,66.36,66.36,0,0,0,.91,12.18,4.12,4.12,0,0,0,1.53,2.58,193.41,193.41,0,0,1,15.55,13.91c.49.49.9,1.15,1.84,1.21.39-1.11-.36-1.95-.74-2.81a84.52,84.52,0,0,1-5.43-15.34,28.61,28.61,0,0,1-.79-10.94,10,10,0,0,1,1.19-3.62c1.42-2.39,3.68-2.78,5.87-1a10.19,10.19,0,0,1,2.7,3.63,26.5,26.5,0,0,1,2.34,9,63.59,63.59,0,0,1-1.15,18.36,35.22,35.22,0,0,1-1,4.44,2.94,2.94,0,0,0,.68,3.06c3,3.73,6,7.48,8.9,11.31A96.13,96.13,0,0,1,544,155.25c.19.41.45.79.84,1.48a4,4,0,0,0,.31-2.92c-.58-5.92-2.24-11.6-3.84-17.29-1.52-5.39-3-10.79-3.36-16.41a16.74,16.74,0,0,1,2.13-9.45c1.85-3.27,4.72-3.68,7.58-1.19a15,15,0,0,1,3.59,5,37,37,0,0,1,3.29,12.93c1,11.49-1.36,22.41-5.57,33a7.2,7.2,0,0,1-.46,1.11,3.57,3.57,0,0,0,.07,3.8c4.39,9,7,18.7,9.29,28.42.65,2.71,1.31,5.42,2,8.3,1.08-1,1-2.13,1.28-3.17a84.51,84.51,0,0,0,1.38-12.38c.52-7.74,1.13-15.47,1-23.24a26.49,26.49,0,0,1,1.46-9,15.77,15.77,0,0,1,2.73-5c1.9-2.31,4.29-2.74,6.8-1.09a11.44,11.44,0,0,1,5,6.81c1.92,7.25,1.31,14.42-.82,21.52-2.7,9-7.44,16.94-13,24.42-1.19,1.6-2.42,3.18-3.72,4.7a2.72,2.72,0,0,0-.69,2.62,199.09,199.09,0,0,1,4,23.14c.46,4,.79,8,1.2,11.93a2.8,2.8,0,0,0,.36,1.72c.82-.22.85-1,1.09-1.61,2.14-5.09,3.65-10.4,5.3-15.66a93.23,93.23,0,0,1,6.3-16,8.9,8.9,0,0,1,2.92-3.43,5.57,5.57,0,0,1,7.09.37,9.48,9.48,0,0,1,3.17,8.64,28.79,28.79,0,0,1-4.13,11.91A62.54,62.54,0,0,1,573.27,246c-1.63,1.29-3.29,2.54-5,3.78a3.4,3.4,0,0,0-1.35,3.1c.14,6.32.26,12.63.09,19-.21,8.16-.85,16.29-1.87,24.38-.14,1.08-.2,2.17-.3,3.36.37-.14.58-.15.64-.25,2.77-4.76,6.2-9.12,8.59-14.12A90,90,0,0,1,580.4,274a33.89,33.89,0,0,1,6.43-7.4,21.13,21.13,0,0,1,6-3.54c6.83-2.62,13.13,2.26,12.42,9.61a25.17,25.17,0,0,1-5.08,13,41.13,41.13,0,0,1-9.65,8.92,102.82,102.82,0,0,1-18.24,9.55l-7.32,3a2.65,2.65,0,0,0-1.81,2.25c-1.65,8.72-3.82,17.32-6.28,25.84-2,6.82-4.06,13.59-6.58,20.23-.24.63-.77,1.27-.31,2,1-.1,1.41-1,2-1.6,4.45-4.82,8.73-9.79,13.45-14.35a45.12,45.12,0,0,1,9.51-7.26,17.39,17.39,0,0,1,5.84-2.09c3.61-.52,6.11,1.4,6.51,5a13.83,13.83,0,0,1-1.23,7,30.07,30.07,0,0,1-8,10.69c-7.07,6.28-15.49,9.76-24.63,11.67a46.85,46.85,0,0,1-7.35,1.07,3,3,0,0,0-2.81,1.83,105.31,105.31,0,0,1-6.52,10.9c-.45.66-.93,1.3-1.44,1.91a1.13,1.13,0,0,1-1.48.42,1.24,1.24,0,0,1-.51-1.67,11.45,11.45,0,0,1,1-1.88,165.41,165.41,0,0,0,15-29.41c1.36-3.5,2.48-7.09,3.57-10.68a4,4,0,0,0-.5-3.59,72.76,72.76,0,0,0-11.69-13.62c-4.37-4.11-8.9-8.06-13.13-12.3A27.82,27.82,0,0,1,520,294.25c-1.1-6.37,2.82-9.43,8.93-7.22a23,23,0,0,1,7.79,5.07,51.84,51.84,0,0,1,11,15.57,88.26,88.26,0,0,1,6.68,20,5.17,5.17,0,0,0,.71,2.26c.62-.4.62-1.07.78-1.67a264.57,264.57,0,0,0,6.41-29.74,134.91,134.91,0,0,0,1.15-15.3,3.67,3.67,0,0,0-1.87-3.53,233.29,233.29,0,0,0-21.37-11.88c-4.19-2.15-8.48-4.16-12.51-6.6a22.4,22.4,0,0,1-9.73-12.37c-1.49-4.48.9-7.72,5.65-8.16A22.49,22.49,0,0,1,535.33,243c7.46,3.43,13.28,8.81,18.13,15.32A61.9,61.9,0,0,1,561,271.65a49.16,49.16,0,0,0,2.63,5c.86-.37.62-1,.65-1.51a241.7,241.7,0,0,0-.45-30.92c-.18-2.39-.5-4.78-.58-7.17a3.68,3.68,0,0,0-1.81-3.12c-4.92-3.51-10.47-5.41-16.31-6.66-5.47-1.17-11-2-16.43-3.39a42.83,42.83,0,0,1-9-3.39c-5-2.61-8.24-6.75-10.68-11.64-.87-1.74-.74-2.13.78-3.53,3.41-3.13,7.49-4.1,12-3.73a33.54,33.54,0,0,1,12.74,4,76,76,0,0,1,26.28,22.33c.28.38.59.75.9,1.12h.41a18.39,18.39,0,0,0-.55-5.07c-2.06-13.2-5.43-26.12-8.61-39.08a2.7,2.7,0,0,0-1.8-2,39.89,39.89,0,0,0-10.68-2.59c-4.93-.52-9.87-.91-14.8-1.43a38.26,38.26,0,0,1-11.37-2.78,22.66,22.66,0,0,1-6.24-4c-1.12-1-2.24-2-3.34-3.09a4.73,4.73,0,0,1-.65-6.66q.15-.18.31-.34a9.47,9.47,0,0,1,6.69-3.31,39.58,39.58,0,0,1,21.29,4.6,55.51,55.51,0,0,1,14.5,10.92l2.5,2.58c.16.27.42.7.65.53.41-.29.11-.7-.14-1-4-9.91-7.89-19.88-12.62-29.49a29.62,29.62,0,0,0-3-4.88,10.08,10.08,0,0,0-9.44-4.09,66.15,66.15,0,0,0-11.48,2.39c-6.4,1.7-12.81,3.41-19.28,4.8a15.67,15.67,0,0,1-6.88.32,10.15,10.15,0,0,1-2.91-1.06c-3.41-2-4.14-5.64-1.73-8.77a12.11,12.11,0,0,1,6.07-4.11c12.1-3.86,24-3.63,35.81,1.39a5.07,5.07,0,0,0,2.28.78c.13-1-.56-1.53-1-2.12a101,101,0,0,0-13.93-15.15c-.47-.43-.93-.88-1.39-1.32-2.67-2.5-2.67-2.51-6.26-1.41a66.42,66.42,0,0,0-10.54,4.56,77.41,77.41,0,0,1-12.83,5.27c-3.24,1-6.51,1.66-9.9.78a9.58,9.58,0,0,1-4.31-2.47,2.47,2.47,0,0,1-.62-3,13.77,13.77,0,0,1,4.82-6.13,25.61,25.61,0,0,1,11.32-4.28,50.51,50.51,0,0,1,20.9,1.26c.35.16.78.43,1,.06S503.7,109,503.45,108.87Zm50.29,247.3c.47.21.93.3,1.28-.21,6.85-4,13.68-8,19.7-13.14a35.2,35.2,0,0,0,6.37-7.14c.28-.42.84-.79.44-1.56a13.69,13.69,0,0,0-3,.52,24.17,24.17,0,0,0-9.91,6.11c-4.89,4.72-9.36,9.85-14,14.82l-1,.64c.18-.06.22.08.1.09S553.87,356.46,553.74,356.17Zm16.77-110.35.61-.9A63.87,63.87,0,0,0,587,229.09a25.14,25.14,0,0,0,3.72-8,14.58,14.58,0,0,0-.8-10c-.39-.83-.73-1.78-1.93-2-1,2.81-1.86,5.6-2.93,8.32-2.93,7.46-7,14.36-11,21.22a56.58,56.58,0,0,0-3.34,5.8.94.94,0,0,0-.21,1.31l.08.1-.12-.12Zm-7.27-47.75c2.27-5,3.43-10.45,4.52-15.82a181.38,181.38,0,0,0,3.3-23.21,58.14,58.14,0,0,0,0-9.88,5.66,5.66,0,0,0-3,2.59,17.41,17.41,0,0,0-2.16,5.3c-1.5,5.94-1.57,12-1.77,18.07-.25,7.57.16,15.18-1.31,22.68-.22.32-.32.89-.08,1C563.24,198.89,563.17,198.37,563.24,198.07Zm-8.53,29.38v0a3.77,3.77,0,0,1-.89-.32c-4.84-3.11-10-5.7-15-8.49a27.87,27.87,0,0,0-6.43-2.54c-7.17-1.91-14.38-3.69-21-7.1-.23-.12-.45,0-.65.25.11.26.21.55.36.83,2.85,5.46,7.44,8.84,13.11,10.92a65.54,65.54,0,0,0,11.37,2.79c5.89,1,11.85,1.71,17.53,3.73a1.72,1.72,0,0,0,1.6-.08Zm-7.58-50c.26.26.61.52.88.16s-.22-.45-.44-.61a66.52,66.52,0,0,0-16.23-12.2,38.37,38.37,0,0,0-8.89-3.54c-5.11-1.28-10.13-1.33-15,1.1-.83.42-1.82.7-2.17,1.74,2.87,2,6.17,2.59,9.48,3.1a103.57,103.57,0,0,1,27.48,8.17c1.65.77,3.28,1.43,4.89,2.12Zm10.07,92.62c.12.18.26.44.5.23s0-.42-.08-.62a75.68,75.68,0,0,0-10.91-16.29,35.54,35.54,0,0,0-10.18-8.27A20.31,20.31,0,0,0,522.61,243c-.61.13-1.27.17-1.52.73a.54.54,0,0,0,.35.68h0c6.89,3.33,12.82,8.11,19,12.57q8.56,6.28,16.76,13.13ZM572,300.89a65.12,65.12,0,0,0,15.52-7.41,41.43,41.43,0,0,0,9.73-8.47,25.63,25.63,0,0,0,5.54-11.29c.6-2.92-.43-6-2.45-7.47a44.14,44.14,0,0,1-3.83,7.18,105.35,105.35,0,0,1-15.21,18.16c-3.15,3-6.39,6-9.58,9-.16.07-.45.13-.26.37S571.79,301,572,300.89ZM565.07,198a5.85,5.85,0,0,0,.83-.82,77.1,77.1,0,0,0,11.16-22.66,38.87,38.87,0,0,0,1.81-11.31c0-5-1.26-9.65-5-13.3-.36-.35-.68-.94-1.39-.65a4.41,4.41,0,0,0-.16,2.1,126.23,126.23,0,0,1-2.42,25.94c-1.3,6.91-3.19,13.67-5.13,20.41,0,.2-.11.53,0,.58S565,198.17,565.07,198ZM543.49,316c-.78.87-1-.16-1.33-.46a76.45,76.45,0,0,1-8.14-9.73c-3.2-4.48-6.31-9-9.49-13.53-.48-.68-.78-1.58-1.85-1.91a12.21,12.21,0,0,0-.13,5.91c.81,4.75,3.41,8.54,6.64,12a87.08,87.08,0,0,0,7.8,7.08c4.24,3.51,8.56,7,12.06,11.26.11.14.37.16.67.27a3.58,3.58,0,0,0-.75-2.29c-.88-1.6-1.82-3.17-2.73-4.75.49-.44.68.08.9.32a26.29,26.29,0,0,1,3.9,5.72c.22.43.28,1,1,1.09a3.07,3.07,0,0,0,0-.75c-2.22-8.18-4.83-16.21-9.15-23.58a36.14,36.14,0,0,0-7-8.76,23.51,23.51,0,0,0-8.62-5c-1.07-.34-2.23-.8-3.43.17.69,1,1.3,2,1.92,2.9,5.16,7.6,10.64,15,16.37,22.15A5.06,5.06,0,0,1,543.49,316Zm24.19-15.58a226.22,226.22,0,0,0,18.23-17.34,82.85,82.85,0,0,0,11.55-15.56,5.36,5.36,0,0,0,1.09-2.67,7.7,7.7,0,0,0-3.1,0,16.3,16.3,0,0,0-8.81,4.54,34.81,34.81,0,0,0-5.34,6.75c-2,3.25-3.78,6.67-5.57,10.07a67.94,67.94,0,0,1-6.77,11,6.7,6.7,0,0,0-1.55,2.93c-.1.1-.29.26-.27.29.18.35.36.15.54,0Zm-9.91-73.12c.09.21.25.4.45.22s0-.36-.16-.51c-7.24-8.81-15.69-16.16-26-21.17a32.4,32.4,0,0,0-6.78-2.35c-4.86-1.14-9.53-.83-13.89,1.8-.43.26-1.07.42-1,1.17a6.29,6.29,0,0,0,2.11,1.11,149.48,149.48,0,0,0,17.18,6,94.13,94.13,0,0,1,26.26,12.61,5.07,5.07,0,0,0,1.83,1.14ZM543.71,109.41c2,16,5.15,31.69,4.1,47.83.8-.35.8-.87.94-1.31.91-3.06,2-6.09,2.71-9.19,1.81-7.4,3.25-14.85,2.06-22.53-.82-5.3-2.9-9.95-7.12-13.45A4.26,4.26,0,0,0,543.71,109.41ZM583.83,335c-3.43,5.8-8.18,9.79-13.35,13.34-2.11,1.45-4.27,2.81-6.38,4.26-4.41,3-9.07,5.7-13.3,9-.65.5-1.47.89-1.79,2a63.88,63.88,0,0,0,17.42-4.74A40.73,40.73,0,0,0,578,351.64a20.72,20.72,0,0,0,7-12.49A5.27,5.27,0,0,0,583.83,335ZM482,138.22a3.79,3.79,0,0,0,3.19.62c4.44-.5,8.89-1,13.32-1.63,9.07-1.33,18.08-3.38,27.41-2.22-.36-1-1.24-1.1-1.94-1.39a52.36,52.36,0,0,0-21.75-4,32.27,32.27,0,0,0-13.06,2.67A15.92,15.92,0,0,0,482,138.22Zm23.35,26.94a5.59,5.59,0,0,0,1.48,3,18.44,18.44,0,0,0,7.53,5.74,38.38,38.38,0,0,0,11.57,2.87c5.63.58,11.29,1,16.93,1.48.5,0,1.06.32,1.67-.25-1.43-.64-2.83-1.17-4.13-1.87A72.41,72.41,0,0,0,527.25,171c-7.14-2.22-14.76-2.58-21.94-5.84ZM520,246.45a3.92,3.92,0,0,0,.32,2.47,19.72,19.72,0,0,0,7.61,9.89,53,53,0,0,0,9.85,5.4c4.52,2,9.16,3.76,13.54,6.09.32.17.7.38,1.06,0C548.46,265.3,526.76,249.26,520,246.45Zm-52.85-127.8a31.14,31.14,0,0,0,7.72-1.14c5-1.31,10-2.91,15.07-3.89,4.49-.86,8.92-2.05,13.59-2.17-.11-.28-.12-.38-.17-.41a2.69,2.69,0,0,0-.62-.34,42.84,42.84,0,0,0-20.6-1.39,25.16,25.16,0,0,0-13.69,6.92,3,3,0,0,0-1.33,2.42Zm75.62-8.83a6.76,6.76,0,0,0-3,4,14.24,14.24,0,0,0-.59,4.73,58.57,58.57,0,0,0,2.61,15c1.42,5,3.17,9.87,4,15,.27,1.78.08,3.64,1,5.79.57-15.12-2.38-29.53-4-44.52ZM523,136.2a33.94,33.94,0,0,0-6.48-.28c-5.22.14-10.3,1.24-15.39,2.25-6,1.18-11.93,2.25-18,2.09-.2,0-.5,0-.53.36.94,2.11,1.54,2.7,3.4,3.31a12.27,12.27,0,0,0,4.51.43,51.63,51.63,0,0,0,8.74-1.38c7-1.57,13.81-4,20.77-5.74A6.22,6.22,0,0,0,523,136.2Zm46.24,106.94a2,2,0,0,0,1.11-1c3.33-5.64,6.59-11.32,9.54-17.17a85.87,85.87,0,0,0,5.54-12.72c.37-1.18,1-2.34.77-3.62a1.92,1.92,0,0,0-1.68.1,9.28,9.28,0,0,0-4.81,4.8,55.91,55.91,0,0,0-4.14,11c-1.21,4.64-2.37,9.27-4.57,13.59a19,19,0,0,0-1.73,5Zm-103-154.89-6.14-2.33a103,103,0,0,0-14.3-4.77,33.67,33.67,0,0,0-5.92-.86c-1,0-1.29.35-1.19,1.27a5,5,0,0,0,2.67,3.77,18.23,18.23,0,0,0,6.53,2.24,82.56,82.56,0,0,0,14.56,1.05c1.22,0,2.47.29,3.78-.37Zm52.41-.12c1,10.89,2.23,21.57,3.9,32.32.36-.2.47-.22.48-.27a68.65,68.65,0,0,0,1.62-20,22.17,22.17,0,0,0-3.28-10.15,3.38,3.38,0,0,0-2.73-1.95Zm-20,6.49c-.39-4.69,0-9.38-.61-14.05a29.45,29.45,0,0,0-1.68-7.43,12.76,12.76,0,0,0-5.54-6.67c-.53-.3-1-.79-1.67-.41,2.5,9.74,4.93,19.48,9.45,28.56Zm-31.5,25.92a9.19,9.19,0,0,0,7.93,2.77,28.41,28.41,0,0,0,8.74-2.37c5.88-2.47,11.71-5.06,17.55-7.61.19-.08.3-.33.55-.64a32.15,32.15,0,0,0-8.52,1.61c-8.54,2.36-16.89,5.37-26.3,6.24ZM488,66.66a2.49,2.49,0,0,0-1.13,1.63,12.13,12.13,0,0,0-.26,6.83,33,33,0,0,0,3,8.05q3.51,7.07,7.09,14.09c.28.54.15,1.45,1.31,1.57-.53-1.66-.82-3.26-1.34-4.83-2.6-7.77-5.68-15.4-7-23.55A7.38,7.38,0,0,0,488,66.66ZM439,78.27a38.22,38.22,0,0,1,13.54,2.4c3.75,1.34,7.45,2.82,11.19,4.21a27,27,0,0,0,5.55,1.71,1.63,1.63,0,0,0-.84-.93c-3-1.78-6-3.61-9.07-5.34a35.08,35.08,0,0,0-8.59-3.55C446.66,75.72,442.7,75.86,439,78.27Zm78.28,10.34a8.92,8.92,0,0,0-2.59,4.8c-.82,3.45-.19,6.82.69,10.15A108.75,108.75,0,0,0,519.45,115a2.76,2.76,0,0,0,1,1.46c-1.45-9.27-2.38-18.28-3.21-27.85Zm35.23,239.47c0-.13-.11-.26-.16-.4s-.17.12-.17.16a3.61,3.61,0,0,0,.16.42Zm.44-57.45s-.12-.09-.16-.07-.17.12-.16.15c.09.19.21.22.31.08s0-.11,0-.16Zm-26.2-137.34s-.1.12-.08.16.12.18.15.17c.21-.09.24-.21.1-.32S526.8,133.29,526.75,133.29ZM550,357.39l-.29.17s.11.15.15.15a1.27,1.27,0,0,0,.31-.15ZM520.68,121.26l-.29.16c0,.05.11.15.15.14a.94.94,0,0,0,.3-.15ZM569.24,243.8l-.15-.09v.17Zm-19.17,83.48-.15-.16-.16.15.22.16A.74.74,0,0,0,550.07,327.28Z" />
                <path class="cls-1"
                    d="M76.66,133.54a49.45,49.45,0,0,1,26.48-5.21,45.94,45.94,0,0,1,11.27,2.15,12.71,12.71,0,0,1,5.8,3.69c2.81,3.25,2.08,7.2-1.73,9.23a11.77,11.77,0,0,1-7.7,1c-7.33-1.24-14.54-3.07-21.77-4.76a79.09,79.09,0,0,0-10.12-1.89,10.46,10.46,0,0,0-10.61,5.06,50.31,50.31,0,0,0-4.42,8.76c-3.19,8-6.33,16-9.48,24.09a1.7,1.7,0,0,0-.18,1.53c.93-.12,1.31-1,1.83-1.53a55.2,55.2,0,0,1,17.55-13.53,38.74,38.74,0,0,1,18.33-4,9.9,9.9,0,0,1,7.1,3c2.29,2.39,2.23,5.08-.15,7.39-1.32,1.28-2.6,2.61-4,3.8-3.88,3.33-8.54,4.93-13.46,5.9s-10.15,1.29-15.22,1.93a51.74,51.74,0,0,0-12.57,2.92,3.79,3.79,0,0,0-2.61,3c-2.26,10.63-4.8,21.2-6.49,31.94-.54,3.47-1,7-1.43,10.45a1.32,1.32,0,0,0,.16,1.12c.82,0,1-.77,1.31-1.24A76.7,76.7,0,0,1,69.76,206a34.71,34.71,0,0,1,12.59-4.43c4.65-.61,8.92.27,12.53,3.47,1.47,1.3,1.56,1.77.76,3.54A25.28,25.28,0,0,1,81.76,222.1a90.15,90.15,0,0,1-15.22,4.23,97.25,97.25,0,0,0-14.11,3.78,39.65,39.65,0,0,0-8.94,5.07,2.69,2.69,0,0,0-1.21,2.19,246.48,246.48,0,0,0-.66,28.76c.11,2.56.18,5.11.3,7.67a17.37,17.37,0,0,0,.56,3.77,19.06,19.06,0,0,0,2.76-4.93,61.33,61.33,0,0,1,12.46-20,41.22,41.22,0,0,1,15.71-10.72,19.16,19.16,0,0,1,8.71-1.24c4.73.52,7,3.75,5.44,8.29a22.4,22.4,0,0,1-9.8,12.59c-6.14,3.58-12.44,6.9-18.67,10.34-4.76,2.63-9.39,5.46-14,8.44a4.19,4.19,0,0,0-2,4.16,124.79,124.79,0,0,0,3.76,26.3c1.46,6.06,3.17,12,4.8,18.06.15.57.13,1.29.92,1.74a30,30,0,0,0,1.2-5.24A81,81,0,0,1,61.48,304,45.81,45.81,0,0,1,71,291.43a19.9,19.9,0,0,1,8.19-4.81c4.67-1.22,7.7,1.14,7.71,6a13.37,13.37,0,0,1-.56,3.79c-1.57,5.34-3.79,10.34-7.91,14.3q-7,6.73-13.88,13.6a63.47,63.47,0,0,0-8.93,11.25A4.87,4.87,0,0,0,55,340a150.28,150.28,0,0,0,14.78,31.9c1.51,2.54,3.2,5,4.81,7.46.22.34.48.65.67,1,.43.79.92,1.67-.11,2.31s-1.53-.14-2-.78a103.75,103.75,0,0,1-6-9,28,28,0,0,1-1.53-2.71c-.75-1.68-2-2.16-3.8-2.29a58.66,58.66,0,0,1-24.27-6.82,39.23,39.23,0,0,1-12-9.8A23.36,23.36,0,0,1,21,342.71a11.9,11.9,0,0,1-.33-4.52,5,5,0,0,1,5.08-4.77,12.39,12.39,0,0,1,5.57,1.24,40.06,40.06,0,0,1,10.85,7.4c5,4.51,9.47,9.53,14.16,14.33.6.61,1,1.43,2,1.62.5-.83,0-1.45-.31-2.07-1.93-4.65-3.54-9.42-5.15-14.19a286,286,0,0,1-8.7-31.09,3.64,3.64,0,0,0-2.66-2.92A155.16,155.16,0,0,1,21.28,299a51.77,51.77,0,0,1-12.93-9.44,25.86,25.86,0,0,1-7.17-14.09,10.16,10.16,0,0,1,2.26-8.75,7.59,7.59,0,0,1,8.18-2.61,21.54,21.54,0,0,1,9.28,5.28,40.42,40.42,0,0,1,6.7,8.43c1.26,2,2.55,4.07,3.62,6.22,2.79,5.61,6.54,10.61,9.93,15.83.12.18.24.45.72.26.25-2-.39-4.11-.67-6.17a246.93,246.93,0,0,1-2.31-32c0-2.8-.07-5.6,0-8.4a2.76,2.76,0,0,0-1-2.3,54.87,54.87,0,0,0-5-3.73,63,63,0,0,1-15.22-15.16,30.23,30.23,0,0,1-5.41-13.19,9.61,9.61,0,0,1,2.5-8.42,5.74,5.74,0,0,1,8.1-.58l.1.09a10.17,10.17,0,0,1,2.49,3.19c3.16,5.69,5.26,11.81,7.32,18,1.45,4.32,2.88,8.64,4.73,12.81a6.1,6.1,0,0,0,1.38,2.33c.16-1.81.34-3.26.42-4.73a220.58,220.58,0,0,1,4-32.09,3.59,3.59,0,0,0-.94-3.42,91.92,91.92,0,0,1-15.19-23.18c-3.1-7.07-4.78-14.4-4.07-22.16.26-2.79.61-5.57,2.24-8a12.53,12.53,0,0,1,3.09-3.32c2.64-1.86,5.17-1.54,7.2.94A17.78,17.78,0,0,1,39,157.42a52.72,52.72,0,0,1,1.3,12.13c.31,9.36,1.32,18.65,2.55,27.92a13.15,13.15,0,0,0,1.76,5.77l2-9.22c2-9,4-18,7.78-26.38a7.94,7.94,0,0,0,0-7.14c-4.32-9.94-6.75-20.32-6.26-31.23A35.82,35.82,0,0,1,51.75,114a12.92,12.92,0,0,1,3.35-4.33c2.5-2,5-1.68,6.8,1a16.49,16.49,0,0,1,2.65,10c-.2,5.39-1.49,10.59-2.79,15.79a127.42,127.42,0,0,0-3.37,15.93,33.18,33.18,0,0,0-.21,5,.53.53,0,0,0,.66-.3c4.09-10,10.16-18.66,16.65-27.09.87-1.14,1.7-2.33,2.65-3.41a3.55,3.55,0,0,0,.81-3.69,70.9,70.9,0,0,1-2.73-17,35.61,35.61,0,0,1,1.6-13A12.25,12.25,0,0,1,80.72,88c2.35-2.26,5-1.84,6.47,1.06a12.35,12.35,0,0,1,1.25,5.08,38.73,38.73,0,0,1-1.73,13,101.6,101.6,0,0,1-4.18,11.73c-.33.78-.9,1.52-.64,2.48.81.25,1.14-.4,1.54-.81A199.66,199.66,0,0,1,99.15,105.7a3.65,3.65,0,0,0,1.26-2.21c.77-3.64.54-7.33.62-11,.13-6,0-12,1.26-17.91a19.76,19.76,0,0,1,2.82-7.33,8.1,8.1,0,0,1,7.58-3.73,3.12,3.12,0,0,1,2.61,1.38c2,2.72,2.21,5.76,1.7,8.93a35,35,0,0,1-3,9.09c-2.23,4.87-4.49,9.72-6.73,14.58-.18.31-.45.66-.14,1s.48-.08.67-.27a124,124,0,0,1,14-8.35,18.19,18.19,0,0,0,2.94-2.05A83.08,83.08,0,0,1,150.6,73.49a14.5,14.5,0,0,1,10.53.38,9.07,9.07,0,0,1,1.27.67c3.81,2.33,4.16,5.63.82,8.6a23.52,23.52,0,0,1-10.73,5.05c-5.42,1.23-11,1.19-16.46,1.34-3.91.11-7.81.09-11.65,1a6.75,6.75,0,0,0-1.56.57C114,95.52,106.29,101.6,99,108.21a2.73,2.73,0,0,0-.4.71c1,.33,1.72-.16,2.5-.36a47.43,47.43,0,0,1,22.31-.75,23,23,0,0,1,8,3.22,13.85,13.85,0,0,1,5.31,6.33,2.38,2.38,0,0,1-.51,2.83,9.28,9.28,0,0,1-6.32,3,21.66,21.66,0,0,1-7.59-.8,79.43,79.43,0,0,1-12.76-4.81,79.25,79.25,0,0,0-12-4.8,4.53,4.53,0,0,0-5.05,1.39c-5.3,5.44-10.81,10.68-15.1,17L76.1,133c-.13.23-.47.43-.2.74S76.42,133.64,76.66,133.54ZM53.57,271.6c.16-.18.69-.22.37-.58s-.48.09-.65.29-.49.18-.29.43S53.4,271.77,53.57,271.6Zm-2.12-43.39c-.19-.24-.37-.11-.51,0s0,.28.07.28a.36.36,0,0,0,.43-.27v-.05c.22,0,.4,0,.45-.3,0,0-.11-.13-.17-.13A.36.36,0,0,0,51.45,228.21Zm-15.52,16c.12.22.1.71.46.51s.1-.54-.22-.71a14,14,0,0,0-1.7-4.7c-2.36-4.33-3.65-9-5-13.69a62.22,62.22,0,0,0-4.18-10.43,10.88,10.88,0,0,0-2.75-3.6A5.65,5.65,0,0,0,18.26,210a35.36,35.36,0,0,0,2.31,6.92,167.11,167.11,0,0,0,10.73,20,65.44,65.44,0,0,0,4.63,7.25ZM57.7,328a84,84,0,0,1,9.14-9.44C68.91,316.85,71,315,73,313.23a47.66,47.66,0,0,0,8-8.85,19.79,19.79,0,0,0,3.34-8.64,11.63,11.63,0,0,0-.51-5.94c-1.19,1.78-2.13,3.15-3,4.54-3.72,5.69-7.33,11.45-11.54,16.8a61.86,61.86,0,0,1-4.87,5.62c-.24.24-.52,1-1,.21a6.3,6.3,0,0,1,1.32-2c5.92-7.76,11.55-15.72,16.79-24,.45-.7,1.18-1.32,1.06-2.29-1.07-.65-2.08-.24-3.05.08A22.42,22.42,0,0,0,73,292.31a32.83,32.83,0,0,0-8.47,10c-4.86,8.46-7.37,17.75-9.54,27.17a5.15,5.15,0,0,0,.76-1.2c1.23-2.48,2.16-5.15,4.35-7,.82.49.09,1-.11,1.31a30.34,30.34,0,0,0-2.54,5.22c0,.19-.12.51,0,.55C57.66,328.5,57.65,328.21,57.7,328ZM93.44,208.66a86.62,86.62,0,0,1-8.31,3.67c-4.13,1.48-8.35,2.67-12.55,3.94a19.38,19.38,0,0,0-4.28,1.49c-4.9,2.85-9.79,5.7-14.66,8.59-.57.34-1.38.53-1.45,1.42a1.12,1.12,0,0,0,.93,0A127.93,127.93,0,0,1,69,224.17a57.15,57.15,0,0,0,13.74-4c5-2.37,8.94-5.8,11.13-11,.19-.15.33-.35.17-.56S93.62,208.55,93.44,208.66ZM56.89,178c1-.42,1.91-.8,2.83-1.25a102.22,102.22,0,0,1,26.06-9.09c3.66-.68,7.39-1.23,10.8-2.9-.56,1.58-2.09,1.65-3.33,2-3.3.91-6.65,1.63-10,2.47-7,1.76-13.84,3.81-20.07,7.54-1.17.7-2.6.92-4,2.11,4-.39,7.44-.73,10.92-1.09a98.18,98.18,0,0,0,13-1.92A26.5,26.5,0,0,0,93.89,171a15.4,15.4,0,0,0,4.53-5.86c-.72-.61-1.36.41-1.89-.28.45-.59,1.34-.53,1.81-1.35a13.8,13.8,0,0,0-6.64-2.89c-4.7-1-9.21,0-13.57,1.68-8.45,3.35-15.49,8.75-21.72,15.27-.21.19-.6.44-.44.66S56.61,178.23,56.89,178Zm-8.08,93.2c11.3-9.94,22.94-19.43,35.89-27.49a7,7,0,0,0-3.85-1.06,21.77,21.77,0,0,0-15.13,5c-7.87,6.15-13.09,14.3-17.2,23.25-.09.11-.28.28-.25.33.17.31.36.08.54-.05ZM39.4,199c.06.16.09.46.34.28s0-.37-.1-.53c-.46-1.53-.89-3.06-1.37-4.58-4.41-13.92-7.23-28.11-7.36-42.76,0-.36.12-.82-.53-1.09a14,14,0,0,0-4.78,7.39,24.86,24.86,0,0,0-.27,12.09c2.08,10.64,7,20,13.36,28.6A3,3,0,0,0,39.4,199Zm-.15,102.37c.13.14.3.34.47.16s0-.34-.19-.43a8.07,8.07,0,0,0-1.8-3.07,59,59,0,0,1-6-9c-1.77-3.13-3.52-6.27-5.34-9.37a41,41,0,0,0-5.38-7.33,18.17,18.17,0,0,0-7.46-5.06,11.19,11.19,0,0,0-6.32-.5c7.9,14.32,19.88,24.51,32,34.59Zm8.52-73.47a10.67,10.67,0,0,0,1-.62A94.72,94.72,0,0,1,76,213.41a134.19,134.19,0,0,0,16.33-6.23c.73-.35,1.61-.53,2.14-1.4a15.56,15.56,0,0,0-8.84-3c-5.29-.18-10.08,1.55-14.61,4A78.24,78.24,0,0,0,47.34,227.5c-.08.18-.29.45-.23.52.25.33.47.07.66-.13Zm7.73-71c-1.18-15.79,1.43-31.35,3-47a3.08,3.08,0,0,0-.74,0,2.91,2.91,0,0,0-.63.33A19,19,0,0,0,51,118a28.5,28.5,0,0,0-2.1,12.41c.23,9,2.8,17.46,5.71,25.85,0,.27.09.68.89.65ZM23.9,336.31a6,6,0,0,0-1,3.8,18.27,18.27,0,0,0,2.94,7.77,27.6,27.6,0,0,0,8.49,8,54.55,54.55,0,0,0,18.68,7.2,26,26,0,0,0,6.77.82,35.85,35.85,0,0,0-5.49-4.09c-4.93-3.11-9.9-6.17-14.84-9.27a71,71,0,0,1-9.1-6.63A39.24,39.24,0,0,1,23.9,336.31Zm10.93-34.54.31-.38c-11.54-9.64-22.48-19.8-29.59-33.52a8.88,8.88,0,0,0-1.83,8.26,25.43,25.43,0,0,0,6.68,11.73c6.61,6.85,14.88,10.9,23.75,13.9A2.2,2.2,0,0,0,34.83,301.77ZM77.76,134.55c.72.44,1.35.16,2,.13a67.42,67.42,0,0,1,10.54.11c8.81.93,17.56,2.41,26.41,3,1.42.1,2.87.4,4.2-.47a4.18,4.18,0,0,0-1.61-2.3,20.1,20.1,0,0,0-10.6-5.19c-10.21-1.94-20-.34-29.51,3.63A1.92,1.92,0,0,0,77.76,134.55ZM35.59,246.36C32,240.59,28.32,235,25,229.11a98,98,0,0,1-8.19-18.64,2.9,2.9,0,0,0-1.71,1.68,14.08,14.08,0,0,0-1.33,7.67c.6,4.94,3,9,6,12.83A72.24,72.24,0,0,0,34.54,246.2.88.88,0,0,0,35.59,246.36Zm-3.15-96c-1.81,7.88,4.75,42.16,8.85,48.4.33-.55.07-1.09,0-1.61a54.76,54.76,0,0,1-.92-6.87c-.62-7.88-.5-15.8-1.36-23.66a40.81,40.81,0,0,0-2.44-11.18,9.11,9.11,0,0,0-4.13-5.1ZM54,270.88c.6.38,1,0,1.52-.31,3.65-2,7.47-3.62,11.23-5.36a71,71,0,0,0,8.88-4.69,26.16,26.16,0,0,0,6.64-5.81,16.47,16.47,0,0,0,3.64-8.47C80.11,248.32,57.7,265.65,54,270.88Zm44.75-160c.47.06.95.13,1.42.17,1.35.11,2.72.09,4.05.31A182.49,182.49,0,0,1,125,115.68a33.79,33.79,0,0,0,4.43,1,20.93,20.93,0,0,0,5.88.5,3.23,3.23,0,0,0-1.37-2.35,23.59,23.59,0,0,0-7.42-4.75,34.37,34.37,0,0,0-16.45-2.16,31.72,31.72,0,0,0-11.33,2.94Zm-39.21-.64c-1.27,15.23-4.09,30-2.59,45.09a4.56,4.56,0,0,0,.23-1.36,60.3,60.3,0,0,1,2.14-13.21,117.82,117.82,0,0,0,3.4-14c.55-3.71,1.13-7.44.3-11.2a7.72,7.72,0,0,0-3.49-5.34ZM80,136.31c5.18,1.29,10.32,2.67,15.47,4a95.83,95.83,0,0,0,16.2,3.15,13.1,13.1,0,0,0,5.66-.65,5.32,5.32,0,0,0,3.35-3.75,53.89,53.89,0,0,1-7.17,0c-6.63-.44-13.09-2-19.66-2.85C89.26,135.72,84.66,135.2,80,136.31ZM26.09,335.46a4,4,0,0,0,1.26,2.36,44.69,44.69,0,0,0,10.77,9.8c4.75,3.26,9.82,6,14.77,8.92.25.15.52.39.88.14.15-.58-.36-.81-.66-1.11-4.2-4.27-8.39-8.57-12.66-12.78a28.19,28.19,0,0,0-8.39-5.9A14,14,0,0,0,26.09,335.46ZM135.23,87.16c0,.05.11.14.16.14A129,129,0,0,0,152.28,86a20.46,20.46,0,0,0,7.88-2.62,5.17,5.17,0,0,0,2.69-3.75c.16-1.29-.11-1.57-1.41-1.43a45.05,45.05,0,0,0-7.71,1.57c-6.28,1.85-12.16,4.75-18.28,7C135.34,86.8,135.31,87,135.23,87.16Zm-52.15,1c-1.5-.13-2,.79-2.58,1.67A20.46,20.46,0,0,0,77.83,97c-1.42,7.93.1,15.64,1.89,23.36,1.68-10.69,2.55-21.42,3.36-32.19Zm20.2,5.48c4.36-9.13,6.5-18.85,8.81-28.67A7.43,7.43,0,0,0,108.54,67a14.82,14.82,0,0,0-4.26,7.88,50.12,50.12,0,0,0-1,11.91c0,2.29,0,4.56,0,6.82ZM135.4,119c-2.28-.2-4.11-.16-5.9-.47-4.88-.84-9.6-2.38-14.45-3.37-3.91-.8-7.62-2.39-11.61-2.87-.94-.11-1.88-.12-2.82-.18,4.54,2.31,9.08,4.23,13.64,6.12a70,70,0,0,0,9,3.14,17.17,17.17,0,0,0,5.91.72A8.26,8.26,0,0,0,135.4,119Zm-31-20.94a5.54,5.54,0,0,0,.57-.71c2.79-5.64,5.54-11.3,8-17.1a26,26,0,0,0,2.12-7.81,8.71,8.71,0,0,0-1.68-6.67,2.11,2.11,0,0,0-1,1.45c-1.85,9.88-4.88,19.44-8,29a2.5,2.5,0,0,0,0,1.85Zm28.42-13.53a3.44,3.44,0,0,0,2.81-.28l8-3.25a63.73,63.73,0,0,1,13.19-4.28c1.92-.33,3.87-.14,6.06-.35a12.67,12.67,0,0,0-9.38-2c-7.77,1.26-13.84,5.9-20.69,10.17Zm-50.5,31.24A77.2,77.2,0,0,0,87,102.22a21.73,21.73,0,0,0,.44-7.62,9.13,9.13,0,0,0-2.95-6.11c-.59,9.32-1.29,18.31-2.18,27.29ZM132.66,85.1l.37-.17c0-.06-.06-.16-.1-.16a.8.8,0,0,0-.38.06c-.15.09-.1.17.1.28ZM41.72,199.75l-.1-.16-.15.09.17.25Zm35.46-65.12-.38.2c.06,0,.1.12.17.14a.24.24,0,0,0,.36-.18ZM54,177.44s-.09.12-.08.16.12.18.15.17c.2-.09.24-.21.1-.32S54,177.44,54,177.44ZM58.59,358l-.17-.16a2.3,2.3,0,0,0-.15.32l.15.16A.94.94,0,0,1,58.59,358ZM82,121.59l.17-.17a2.3,2.3,0,0,0-.32-.15l-.16.15ZM35.37,301.71l-.18.16c0,.06.11.16.16.16s.12-.09.18-.14Z" />
                <path class="cls-1"
                    d="M329.78,580.41c-3,1.12-9.59.84-11.76-.32a9.27,9.27,0,0,1-4.17-4.77c-.84.08-.93.84-1.28,1.31a10.61,10.61,0,0,1-9.14,4.82,35.61,35.61,0,0,1-5.75-.14,14.45,14.45,0,0,1-12-14.4c-.22-12.71-.38-25.42-.57-38.13a8,8,0,0,0-.26-2.61,3.94,3.94,0,0,0-3.7-2.89c-.91-.08-1.89.25-2.72-.3.06-.86.67-.73,1.07-.75,2.08-.07,4.16-.19,6.23-.12,4.94.18,8.53,3.51,8.72,8.43.28,7.11.27,14.23.39,21.34.11,6.39.21,12.79.39,19.18a9.67,9.67,0,0,0,8.22,9.25,6.73,6.73,0,0,0,4.16-.85,9.5,9.5,0,0,0,5.55-9.31c-.08-5.2-.13-10.39-.21-15.59q-.15-8.86-.34-17.74c0-1,0-1.78,1.11-2.35,4.46-2.3,6.4-6.26,7-11a9.21,9.21,0,0,1,.14-1.19.81.81,0,0,1,.44-.5c.41-.14.58.27.62.51a13.52,13.52,0,0,1,.13,1.91q.36,24.59.71,49.16a25,25,0,0,0,.14,2.87A4,4,0,0,0,327,580,6.27,6.27,0,0,1,329.78,580.41Z" />
                <path class="cls-1"
                    d="M97.56,503.45c-2-.92-9.93-7.53-10.95-9.1.5-.45.86-.08,1.25.2,3.79,2.8,5.14,2.75,8.82-.31l64.86-54c.64-.53,1.13-1.4,2.29-1.27.26,1-.43,1.63-.83,2.34q-12.09,21.66-24.21,43.3L121.93,514.7a19,19,0,0,0-1,1.89A5,5,0,0,0,122,522.9c.4.39.87.71,1.27,1.09s.73.52.3,1-.74,0-1-.22q-8-6.57-15.87-13.17a1.35,1.35,0,0,1-.35-.32c-.1-.2-.24-.48-.17-.64.16-.37.52-.32.79-.12.52.37,1,.81,1.52,1.17,1.78,1.18,3.7,1,4.8-.86,2-3.35,3.84-6.82,5.76-10.23.41-.74,0-1.18-.49-1.62-1.24-1-2.46-2-3.69-3.06-2.64-2.2-5.33-4.35-7.91-6.61a1.67,1.67,0,0,0-2.62,0c-2.48,2.14-5.07,4.15-7.57,6.27s-2.59,4-.07,6.34C97.11,502.27,97.72,502.49,97.56,503.45Zm45.09-45.83a7.21,7.21,0,0,0-1,.61L107.4,486.74a1,1,0,0,0-.53,1.11c3.89,3.24,7.88,6.56,11.88,9.87,1.32,1.09,1.38,1.08,2.24-.45Q131.7,478.14,142.36,459c.23-.41.84-.85.27-1.45,0,.18.14.25.25.15s0-.18.06-.28Z" />
                <path class="cls-1"
                    d="M170.75,551.38c-1.69,0-19-8-20.47-9.51.64-.59,1.16,0,1.69.17,3.28,1.34,5,.69,6.55-2.54q14.14-30.16,28.26-60.35c.75-1.59,1.45-3.21,2.29-4.75a14.91,14.91,0,0,1,15.59-8c7.17,1.27,12.24,6.19,13.43,12.91a15.35,15.35,0,0,1-.9,8.69,4.14,4.14,0,0,1-3.81,2.82,4.08,4.08,0,0,1-4.24-2.49,4.32,4.32,0,0,1,6-5.54,19.61,19.61,0,0,1,1.77,1.29,11.2,11.2,0,0,0,.06-4.57c-.92-6.14-5.64-10.73-12.37-12.08a13.31,13.31,0,0,0-14.22,6.7c-2.79,4.86-2.72,9.79.61,14.41a2.88,2.88,0,0,1,.35,3.43c-2.11,4.3-4.1,8.67-6.11,13-.81,1.76-.7,1.94,1.15,2.43a11.59,11.59,0,0,0,13-5.47,5.42,5.42,0,0,1,1.13-1.81c.11-.09.3-.08.5-.13,0,.22.21.49.14.65q-5.52,11.84-11.09,23.65c-.07.16-.39.2-.62.31-.5-1,.26-1.72.53-2.49a11.66,11.66,0,0,0-4.17-13.44c-1.57-1.1-1.77-1.07-2.59.68q-8,17.14-16,34.31c-1.43,3.08-.77,4.86,2.26,6.47a9.38,9.38,0,0,1,1.21.75C170.72,551,170.71,551.23,170.75,551.38Z" />
                <path class="cls-1"
                    d="M490.21,480.88a6.86,6.86,0,0,0,.51.73c4,4.26,8,8.55,12,12.76a9.25,9.25,0,0,0,9.88,2.6,8.29,8.29,0,0,0,5.54-10.33q-.09-.28-.19-.56c-.71,0-.77.69-1.13,1.06a4.34,4.34,0,1,1-6.36-5.91,4.46,4.46,0,0,1,6.3.18l.12.13a10.79,10.79,0,0,1-.21,14.42c-.84.85-1.74,1.65-2.62,2.46-6.47,6-15.1,5.75-21.13-.65-4.83-5.12-9.63-10.27-14.44-15.4-2-2.16-4.08-4.29-6.07-6.48-5.77-6.34-5.49-14.87.67-20.81.81-.78,1.63-1.54,2.45-2.29a10.42,10.42,0,0,1,14.37,0c4.54,4.5,8.79,9.3,13.2,13.93.78.82.51,1.3-.19,2q-5.54,5.14-11,10.35A6.94,6.94,0,0,0,490.21,480.88Zm-16.32-21.16a10.2,10.2,0,0,0,2.6,6.7c3.87,4.15,7.77,8.27,11.62,12.44.81.88,1.36,1.06,2.32.14,3.57-3.44,7.22-6.79,10.82-10.19,1.18-1.11,1.17-1.16,0-2.44q-5.64-6-11.31-12.07a10.08,10.08,0,0,0-1.41-1.29,9.51,9.51,0,0,0-10.19-.84c-3.26,1.55-4.06,4.51-4.45,7.55Z" />
                <path class="cls-1"
                    d="M388.25,522.15a.64.64,0,0,1-.84-.49c-1.86-4.65-5.67-6.89-10.26-7.72a20.39,20.39,0,0,0-17.07,4.5,10.06,10.06,0,0,0-3.34,4.31c-1.15,3.2-.06,5.82,2.31,8a17.22,17.22,0,0,0,7.43,3.74c6,1.59,12.06,3.14,18.09,4.71a20.66,20.66,0,0,1,9.16,5c6.59,6.2,5.91,20-3.9,24.39-5.23,2.34-10.54,3.85-16.26,2.34a15,15,0,0,1-10.74-9.1,6.5,6.5,0,0,1-.58-2.55,4.26,4.26,0,0,1,3.86-4.19,4.15,4.15,0,0,1,4.56,3.36,4.29,4.29,0,0,1-3,5c-.75.23-1.58-.11-2.37.38a5.18,5.18,0,0,0,1.7,2.27,16.44,16.44,0,0,0,14,4.19,25.42,25.42,0,0,0,9.66-3.42,12.17,12.17,0,0,0,4.7-4.69c1.66-3.11,1.09-5.91-1.7-8.06a22.24,22.24,0,0,0-7.35-3.42c-5.44-1.62-11-2.87-16.49-4.21a23.36,23.36,0,0,1-7.9-3.36c-5.89-4.08-8.27-9.82-7.5-16.82A13,13,0,0,1,360.2,517c6-4.23,12.61-5.65,19.79-3.42l.68.23c3.53,1.07,4.43.23,3.62-3.39a4.48,4.48,0,0,1-.12-.46c0-.37-.21-.85.39-.93.4,0,.5.3.59.61.25.84.51,1.68.74,2.53.77,2.77,1.52,5.55,2.29,8.32C388.32,521,388.57,521.62,388.25,522.15Z" />
                <path class="cls-1"
                    d="M440.36,481.52c1.67,1.51,6.67,10.39,6.8,12-.63.14-.82-.38-1.09-.74a11.52,11.52,0,0,0-7.26-4.31c-7.72-1.6-17.16,3.12-20.87,10.12-2.59,4.89-.09,9.09,4,10.78a21.52,21.52,0,0,0,8.21,1.45h18a21.38,21.38,0,0,1,5,.55c9,2.2,13.69,9.91,11.88,19.43a8.89,8.89,0,0,1-1.94,4.08c-4.49,5.36-10,8.94-17.17,9.29a15.26,15.26,0,0,1-12.5-5,9.14,9.14,0,0,1-2.07-3.2,4.35,4.35,0,0,1,2.79-5.38,4.28,4.28,0,0,1,3.06,8c-.58.25-1.21.38-2.08.65a12.24,12.24,0,0,0,7.19,3.64,16.89,16.89,0,0,0,9.65-1,27.09,27.09,0,0,0,8.73-5.8,12.31,12.31,0,0,0,3.26-5.24c1.1-3.75-.14-6.48-3.74-7.93a22.4,22.4,0,0,0-8.22-1.44H435.92a26.7,26.7,0,0,1-8-1,17.32,17.32,0,0,1-12.39-15,12.86,12.86,0,0,1,2.49-9.06c4.8-6.48,11.2-9.81,19.38-9.38a13.87,13.87,0,0,0,1.44.07c2.51-.07,3.26-1.34,2.16-3.56C440.59,483,439.87,482.45,440.36,481.52Z" />
                <path class="cls-1"
                    d="M215.5,557.87a18.52,18.52,0,0,1,.35-3.23c2.36-9.85,4.66-19.73,7.06-29.57,2-8.44,9.43-12.92,17.87-11,1.63.38,3.28.7,4.89,1.17a14.18,14.18,0,0,1,9.92,16.64q-3.49,15.41-7.32,30.74a14.21,14.21,0,0,1-16.72,10.51c-1.88-.37-3.74-.83-5.59-1.35A14.21,14.21,0,0,1,215.5,557.87Zm18.79,14.5a13.07,13.07,0,0,0,12.94-9.82q3.84-15.46,7.37-31a13.11,13.11,0,0,0-7.52-14.61c-6.27-2.86-12.52.12-14.14,6.82q-4.34,17.94-8.58,35.9a10.78,10.78,0,0,0-.38,4.27c.81,5.14,4.79,8.41,10.31,8.44Z" />
                <path class="cls-1"
                    d="M171.55,390.08c2.09-1.53,4.67-2,6.66-3.64s2.64-4.24,3.83-6.9c1.33,2.64,2,5.18,3.94,6.9s4.53,2.2,7.28,3.44c-2.93.82-5.54,1.27-7.57,3.06s-2.87,4.15-3.52,6.77c-.84-2.41-1.62-4.83-3.58-6.58A14,14,0,0,0,171.55,390.08Z" />
                <path class="cls-1"
                    d="M406.4,228.92c4.69-2.8,4.69-2.8,7-6.44,2.57,4.1,2.57,4.1,7.12,6.33-3.6.73-6.29,2.18-6.87,6.19-1.06-1.52-1.38-3.13-2.62-4.17A9.64,9.64,0,0,0,406.4,228.92Z" />
                <path class="cls-1"
                    d="M378.23,439.91c-3.42.76-5.75,2.07-6.36,5.6-1-1.3-1.29-2.75-2.38-3.67a9.4,9.4,0,0,0-4.33-1.81c1.51-1.06,3-1.34,4.15-2.28s1.46-2.39,2.27-3.88c.91,1.39,1.23,2.82,2.29,3.8S376.39,439,378.23,439.91Z" />
                <path class="cls-1"
                    d="M128,310.83a5,5,0,0,0-4.37-4c1.88-1.2,3.95-1.85,4.33-4.29a6.88,6.88,0,0,0,5,4.1C130.27,307.2,128.77,308.41,128,310.83Z" />
                <path class="cls-1"
                    d="M368.39,144.61c-1.31-1.18-2.53-1.12-4.12,0,.48-1.64,1.22-3-.87-4.12,1.94,0,3.15-.41,3.58-1.89,1,.33.5,1.42,1.11,1.79a12,12,0,0,0,1.91.76C369,142.05,367.8,142.83,368.39,144.61Z" />
                <path class="cls-1"
                    d="M131.17,235.85c-1.2,1.79-1.2,1.79-.8,4-1.45-.94-2.71-.65-4.07.69.23-1.73.45-3.14-1.73-3.84,1.83-.46,3.13-.94,3.21-2.84C128.69,235.12,129.27,236.46,131.17,235.85Z" />
                <path class="cls-1"
                    d="M452.68,281.72c-1.71-1.43-2.91-.73-4.34.29.46-1.67.47-3-1.7-3.83,2.17-.23,3-1.19,3.29-2.85.86,1.07,1.18,2.47,2.75,2.12.31-.07.7.32.34.59C451.82,278.94,452.26,280.1,452.68,281.72Z" />
                <path class="cls-1"
                    d="M236.51,331.49c1.46,1.2,2.59,1.52,4,.33-.25,1.6-.36,2.92,1.09,3.9-1.75,0-2.7.9-3.17,2.7-.68-1.58-1.07-3.07-3.07-2.89C236.74,334.6,237,333.35,236.51,331.49Z" />
                <path class="cls-1"
                    d="M310.53,172c.06,1.26-.21,2.44,1.09,3.23-1.11.72-2.61.57-2.81,2.29-.79-1.25-1.46-2.18-3.16-2.09,1.14-1.07,1.79-2,1.35-3.61C308.33,172.56,309.37,172.75,310.53,172Z" />
                <path class="cls-1"
                    d="M235.38,179.73c-.17-1.42-.25-2.54-1.87-3.09,1.51-.7,2.71-1.08,2.84-2.64a3.35,3.35,0,0,0,3.14,1.78c-.77,1.09-1.27,2.06-.58,3.4C237.58,179,236.43,178.58,235.38,179.73Z" />
                <path class="cls-1"
                    d="M420,379.38a3.43,3.43,0,0,1-2.19,2.26,3.29,3.29,0,0,1-2.2-2c-.13-.81,1.09-2.21,2-2.32A2.93,2.93,0,0,1,420,379.38Z" />
                <path class="cls-1"
                    d="M401.6,330c-.87-.07-2.21-1.55-2.08-2.3s1.76-2.11,2.45-2a3.47,3.47,0,0,1,1.94,2.22A2.85,2.85,0,0,1,401.6,330Z" />
                <path class="cls-1"
                    d="M433.2,184.24a4.06,4.06,0,0,0-3.3,2.74,4,4,0,0,0-3.08-2.66c1.21-.93,2.55-1.46,3-3.24A5.67,5.67,0,0,0,433.2,184.24Z" />
                <path class="cls-1"
                    d="M171.32,245.82c1.36-.68,2.5-1.25,3-3.08a4.93,4.93,0,0,0,3.2,3c-1.33.75-2.54,1.26-3,2.88A5.89,5.89,0,0,0,171.32,245.82Z" />
                <path class="cls-1"
                    d="M268.73,122.29a3.33,3.33,0,0,1-2.27,2.18,3.64,3.64,0,0,1-2.19-2c-.09-.75,1.29-2.2,2.16-2.27A3,3,0,0,1,268.73,122.29Z" />
                <path class="cls-1"
                    d="M191.59,146.65a2.83,2.83,0,0,1,2.07,2.3,3.1,3.1,0,0,1-2.14,2,3,3,0,0,1-2.24-2.16A3.28,3.28,0,0,1,191.59,146.65Z" />
                <path class="cls-1"
                    d="M182.21,200a1.82,1.82,0,0,1,1.67,1.92,1.77,1.77,0,0,1-1.78,1.53,1.62,1.62,0,0,1-1.62-1.88A1.7,1.7,0,0,1,182.21,200Z" />
                <path class="cls-1"
                    d="M207.53,289.8c.13-.8-.74-.93-1-1.5a2.56,2.56,0,0,1,1.12-3.44l0,0a2.48,2.48,0,1,1,2.11,4.49l-.25.1c-.7.33-1.43-.07-2.08.3Z" />
                <path class="cls-1"
                    d="M268.36,225.63a2.84,2.84,0,0,1,2.17,2.21,3.29,3.29,0,0,1-2.1,2.06,2.14,2.14,0,0,1-.35-4.27Z" />
                <path class="cls-1"
                    d="M545.87,318.94c-1,0-1.21-.78-1.52-1.49C545.34,317.46,545.56,318.25,545.87,318.94Z" />
                <path class="cls-1"
                    d="M546.32,319.92c-.42-.23-.84-.46-.5-1C546.22,319.11,546.79,319.27,546.32,319.92Z" />
                <path class="cls-1"
                    d="M543.92,317c-.47-.2-1.06-.34-.49-1C543.88,316.21,544.41,316.38,543.92,317Z" />
                <path class="cls-1"
                    d="M544.42,317.52a.51.51,0,0,1-.55-.54C544.44,316.77,544.52,317.06,544.42,317.52Z" />
                <path class="cls-1"
                    d="M61.09,320.33c-.09.59-.1,1.27-1,1C60.19,320.77,60.34,320.24,61.09,320.33Z" />
                <path class="cls-1"
                    d="M62,318.87a.74.74,0,0,1-.51,1C61,319.26,61.56,319.07,62,318.87Z" />
                <path class="cls-1"
                    d="M63.46,317c.53.68-.08.81-.5,1C62.53,317.37,63,317.18,63.46,317Z" />
                <path class="cls-1"
                    d="M61.58,319.85c0,.31-.17.56-.55.54C61,320,61,319.64,61.58,319.85Z" />
                <path class="cls-1"
                    d="M62.53,318.4c0,.36-.12.62-.56.55C62,318.59,62.1,318.33,62.53,318.4Z" />
                <path class="cls-1"
                    d="M63,317.93c0,.32-.19.55-.56.55C62.43,318.08,62.49,317.77,63,317.93Z" />
            </g>
        </g>
    </g>
</svg>